<svg xmlns="http://www.w3.org/2000/svg" viewBox="0 0 512 512" role="img" aria-label="Production Crew app icon">
  <defs>
    <filter id="redGlow" x="-45%" y="-45%" width="190%" height="190%">
      <feGaussianBlur stdDeviation="9" result="blur"/>
      <feColorMatrix in="blur" type="matrix" values="1 0 0 0 0.9 0 0.05 0 0 0.05 0 0 0.04 0 0.02 0 0 0 0.92 0"/>
      <feMerge>
        <feMergeNode/>
        <feMergeNode in="SourceGraphic"/>
      </feMerge>
    </filter>
    <linearGradient id="shell" x1="78" y1="70" x2="426" y2="438" gradientUnits="userSpaceOnUse">
      <stop stop-color="#22282b"/>
      <stop offset="0.52" stop-color="#0d1112"/>
      <stop offset="1" stop-color="#050607"/>
    </linearGradient>
    <linearGradient id="metal" x1="120" y1="70" x2="360" y2="440" gradientUnits="userSpaceOnUse">
      <stop stop-color="#f6f7f5"/>
      <stop offset="0.18" stop-color="#676d70"/>
      <stop offset="0.58" stop-color="#202427"/>
      <stop offset="1" stop-color="#060809"/>
    </linearGradient>
  </defs>
  <rect width="512" height="512" rx="96" fill="#020303"/>
  <rect x="48" y="48" width="416" height="416" rx="84" fill="url(#shell)" stroke="#343d40" stroke-width="4"/>
  <g transform="translate(52 22) scale(6.35)">
    <g fill="url(#metal)" stroke="#f4f7f5" stroke-width="1.35">
      <path d="M10 14 34 8 29 21 8 26z"/>
      <path d="M40 8h17l-3 15-21 4z"/>
      <path d="M8 30h22l-4 13-20 5z"/>
      <path d="M43 27h13l-5 30H35z"/>
      <path d="M6 49h20l-7 9H4z"/>
    </g>
    <g fill="#d7241f" stroke="#ffb4aa" stroke-width="1.45" filter="url(#redGlow)">
      <path d="M33 24 45 18 43 30 31 34z"/>
      <path d="M32 36h10l-3 15H29z"/>
      <path d="M29 54h10l-1 6H27z"/>
    </g>
  </g>
</svg>
