<svg xmlns="http://www.w3.org/2000/svg" viewBox="0 0 512 512" role="img" aria-label="Production Crew app icon">
  <defs>
    <filter id="glow" x="-40%" y="-40%" width="180%" height="180%">
      <feGaussianBlur stdDeviation="10" result="blur"/>
      <feColorMatrix in="blur" type="matrix" values="1 0 0 0 0.85 0 0.05 0 0 0.08 0 0 0.05 0 0.04 0 0 0 0.9 0"/>
      <feMerge>
        <feMergeNode/>
        <feMergeNode in="SourceGraphic"/>
      </feMerge>
    </filter>
    <linearGradient id="shell" x1="92" y1="76" x2="420" y2="436" gradientUnits="userSpaceOnUse">
      <stop stop-color="#272f32"/>
      <stop offset="1" stop-color="#07090a"/>
    </linearGradient>
    <linearGradient id="metal" x1="126" y1="94" x2="362" y2="424" gradientUnits="userSpaceOnUse">
      <stop stop-color="#f5f7f5"/>
      <stop offset="0.36" stop-color="#737779"/>
      <stop offset="1" stop-color="#15191b"/>
    </linearGradient>
  </defs>
  <rect width="512" height="512" rx="96" fill="#050607"/>
  <rect x="48" y="48" width="416" height="416" rx="84" fill="url(#shell)" stroke="#3b4548" stroke-width="4"/>
  <g transform="translate(58 30) scale(6.2)">
    <path d="M10 16 34 10 30 22 8 27z" fill="url(#metal)" stroke="#f7faf8" stroke-width="1.5"/>
    <path d="M39 9h16l-3 16H34z" fill="url(#metal)" stroke="#f7faf8" stroke-width="1.5"/>
    <path d="M8 31h21l-3 13H7z" fill="url(#metal)" stroke="#f7faf8" stroke-width="1.5"/>
    <path d="M35 29h17l-4 26H31z" fill="url(#metal)" stroke="#f7faf8" stroke-width="1.5"/>
    <path d="M7 48h18l-6 8H5z" fill="url(#metal)" stroke="#f7faf8" stroke-width="1.5"/>
    <path d="M34 23 45 18l-3 36h-8l2-23-8 4 1-8z" fill="#d7241f" stroke="#ffb3a8" stroke-width="1.2" filter="url(#glow)"/>
  </g>
</svg>
